<?xml version="1.0" standalone="no"?>
<!DOCTYPE svg PUBLIC "-//W3C//DTD SVG 20010904//EN"
 "http://www.w3.org/TR/2001/REC-SVG-20010904/DTD/svg10.dtd">
<svg version="1.0" xmlns="http://www.w3.org/2000/svg"
 width="512.000000pt" height="512.000000pt" viewBox="0 0 512.000000 512.000000"
 preserveAspectRatio="xMidYMid meet">

<g transform="translate(0.000000,512.000000) scale(0.100000,-0.100000)"
fill="#000000" stroke="none">
<path d="M2290 4839 c-336 -38 -706 -174 -995 -367 -531 -353 -883 -893 -996
-1527 -27 -151 -37 -483 -20 -636 31 -270 108 -526 237 -790 54 -110 84 -185
84 -206 l0 -33 200 0 200 0 -6 -53 c-3 -28 -9 -83 -12 -122 l-7 -70 -93 -3
-92 -3 0 -28 c0 -28 22 -55 62 -75 13 -6 28 -23 35 -36 7 -14 23 -27 35 -30
14 -4 24 -15 26 -27 2 -12 9 -26 16 -32 10 -8 15 9 24 79 23 167 73 259 167
305 52 26 62 27 145 23 70 -4 90 -3 90 8 0 7 -9 19 -20 27 -16 11 -18 19 -10
45 8 30 37 69 44 61 2 -2 15 -23 30 -47 14 -23 31 -42 36 -42 6 0 10 -9 10
-21 0 -11 5 -29 10 -40 10 -17 7 -19 -27 -19 l-38 -1 26 -22 c43 -36 77 -97
100 -182 39 -137 30 -427 -16 -546 -4 -12 3 -20 25 -29 17 -7 34 -9 38 -6 4 4
7 188 7 409 0 241 4 405 9 409 6 4 31 4 56 1 35 -4 49 -1 59 11 7 9 18 16 23
16 6 0 5 -7 -2 -15 -21 -25 9 -18 32 7 l20 23 -5 -22 c-5 -22 -3 -23 66 -23
40 0 89 -5 111 -11 56 -15 128 -87 162 -162 26 -55 29 -72 28 -157 -1 -106
-14 -146 -65 -205 l-31 -35 59 -183 59 -182 99 -17 c81 -14 142 -16 325 -12
125 3 261 12 306 20 44 8 97 14 117 14 20 0 37 2 37 5 0 7 -142 359 -147 365
-2 2 -1 -78 3 -178 l7 -183 -114 3 c-84 2 -114 6 -113 16 1 6 2 205 3 440 l1
429 88 18 c48 10 91 18 96 19 5 0 46 -91 92 -204 54 -132 84 -194 84 -175 0
17 -7 109 -15 205 -8 96 -15 178 -15 183 0 4 52 7 115 7 l115 0 0 -372 c0
-205 3 -416 6 -469 6 -87 9 -96 25 -92 18 5 19 27 21 446 l3 441 117 0 c65 0
120 -3 124 -7 4 -4 6 -149 5 -322 -1 -173 1 -342 5 -375 l7 -59 27 29 c32 34
75 53 101 45 18 -6 19 3 19 199 l0 206 -65 0 -65 0 0 118 0 118 233 12 c127 7
245 12 260 12 l28 0 -3 -118 -3 -117 -67 -3 -68 -3 0 -131 0 -132 29 46 c30
48 73 78 111 78 20 0 20 5 20 225 0 124 1 225 3 225 1 0 76 7 167 15 91 8 173
15 183 15 12 0 17 8 17 26 0 14 42 110 93 212 138 277 215 530 248 811 17 153
7 485 -20 636 -96 536 -362 1007 -766 1353 -349 300 -791 493 -1240 542 -106
12 -428 11 -535 -1z m725 -349 c7 -12 -36 -30 -71 -30 -30 0 -31 12 -1 26 29
15 64 17 72 4z m265 -75 c212 -81 429 -211 542 -327 21 -21 42 -38 46 -38 15
0 134 -113 210 -200 79 -91 193 -257 259 -380 140 -259 223 -599 223 -915 0
-148 -22 -348 -45 -402 -8 -20 -15 -48 -15 -63 0 -43 -47 -194 -96 -311 -87
-206 -217 -409 -347 -544 l-62 -64 -205 24 c-113 14 -213 25 -222 25 -29 0
-21 18 10 23 23 3 23 4 -5 3 -18 0 -35 3 -39 6 -3 4 -20 5 -38 2 -17 -2 -25
-2 -18 2 14 7 17 64 2 64 -5 0 -10 -4 -10 -9 0 -6 -25 -1 -57 10 -31 10 -60
19 -65 19 -4 0 -8 -26 -9 -57 0 -42 -3 -52 -9 -38 -5 11 -9 35 -9 53 -1 30 -3
32 -35 32 -63 0 -96 -11 -96 -32 0 -18 -5 -19 -62 -13 -35 3 -75 7 -90 8 -16
1 -28 5 -28 9 0 4 -21 10 -47 14 -27 3 -63 13 -82 20 -18 8 -44 14 -57 14 -13
0 -24 5 -24 10 0 6 9 10 20 10 11 0 20 5 20 10 0 6 6 10 14 10 13 0 33 37 24
45 -1 2 -15 6 -30 10 -21 5 -27 3 -33 -14 -3 -12 -11 -21 -16 -21 -11 0 -11 3
1 35 9 23 7 28 -10 32 -11 3 -20 9 -20 14 0 5 -7 6 -15 3 -11 -5 -13 -2 -9 11
6 14 3 16 -16 10 -14 -4 -20 -3 -17 3 4 5 -12 18 -35 28 -31 14 -43 15 -46 6
-2 -6 -8 -12 -13 -12 -4 0 -6 7 -3 15 4 8 12 15 20 15 8 0 11 6 7 16 -4 12 1
15 23 12 31 -3 31 -4 20 62 -5 30 -4 31 4 10 8 -21 9 -20 5 11 -5 36 -4 38 40
59 58 28 54 34 -8 12 -34 -12 -47 -22 -48 -37 -1 -11 -9 12 -18 50 l-16 70
-60 6 c-72 7 -79 4 -72 -30 5 -23 0 -29 -42 -52 -47 -25 -48 -25 -57 -6 -5 11
-29 27 -54 36 -45 16 -45 17 -48 68 -3 43 0 52 16 57 11 4 27 15 37 26 18 20
18 21 -3 50 -12 16 -22 33 -22 39 0 5 -6 11 -12 14 -10 3 -10 7 1 20 10 13 10
17 1 17 -9 0 -9 4 -2 13 5 6 13 26 17 44 3 18 14 35 24 38 10 3 26 14 36 25
15 17 16 24 5 50 -7 18 -22 33 -36 36 -23 6 -34 24 -15 24 5 0 7 9 4 20 -3 12
3 28 16 42 12 13 22 28 23 33 0 12 32 57 63 91 33 36 50 30 70 -23 19 -53 117
-243 146 -284 10 -14 21 -38 25 -54 4 -15 13 -35 21 -44 16 -17 142 -232 143
-242 0 -3 -31 -15 -70 -28 -38 -12 -70 -26 -70 -31 0 -10 125 38 162 62 15 10
51 29 81 42 30 13 57 28 61 34 3 5 -6 26 -20 47 -14 21 -23 39 -20 42 2 2 -2
16 -9 30 -8 15 -12 30 -9 35 3 4 -2 8 -11 8 -9 0 -13 5 -10 11 11 17 -5 79
-20 79 -8 0 -17 5 -21 12 -4 7 -3 8 4 4 15 -9 15 -3 1 45 -8 25 -16 36 -25 32
-10 -4 -14 3 -14 21 0 14 -4 26 -9 26 -14 0 -18 78 -5 102 8 16 9 29 2 41 -5
10 -7 30 -3 45 3 15 -1 48 -8 73 -14 46 -14 46 9 41 13 -2 42 3 64 12 l40 16
-6 -25 c-3 -14 -3 -33 1 -42 5 -15 9 -12 20 15 8 18 12 38 9 45 -2 7 7 19 21
27 l25 13 -23 11 c-12 7 -22 16 -22 21 -1 6 -7 21 -14 35 l-14 25 22 -19 c40
-36 34 -7 -8 35 -40 41 -51 75 -31 95 7 7 -2 24 -29 55 -38 41 -41 43 -47 22
-5 -18 -10 -20 -31 -12 -14 5 -28 7 -33 4 -16 -10 -23 18 -8 29 19 14 12 36
-12 36 -15 0 -17 -6 -13 -39 5 -37 4 -38 -21 -34 -23 5 -26 10 -26 46 0 33 11
58 61 133 34 51 60 95 59 99 -1 4 16 26 38 49 22 22 47 59 56 80 15 37 15 41
-5 82 -11 24 -23 68 -26 99 -3 30 -10 55 -14 55 -5 0 -9 7 -9 15 0 21 -37 39
-47 23 -4 -7 -6 -21 -5 -30 3 -18 -39 -68 -56 -68 -5 0 -12 13 -15 30 -5 21
-11 28 -22 24 -16 -7 -21 -24 -5 -24 5 0 7 -15 5 -34 -4 -30 -1 -35 28 -49 17
-8 39 -17 47 -19 11 -4 2 -17 -32 -50 -27 -24 -48 -47 -48 -52 0 -4 -12 -23
-26 -41 -30 -40 -81 -59 -132 -51 -97 18 -263 86 -309 129 l-23 20 20 34 c10
18 21 45 22 60 3 25 0 28 -24 25 -31 -3 -46 19 -68 100 -7 26 -16 45 -21 42
-5 -3 -23 4 -39 16 -22 15 -30 30 -30 51 0 39 11 36 38 -11 12 -22 26 -40 30
-40 4 0 7 21 7 48 -1 58 17 91 91 166 59 59 60 60 123 40 22 -6 23 -5 19 20
-4 17 1 35 13 49 17 21 18 21 36 4 15 -15 16 -21 5 -38 -9 -14 -10 -25 -3 -37
9 -15 10 -14 11 5 0 21 16 40 26 31 2 -3 -2 -21 -11 -41 -12 -30 -13 -40 -1
-67 l13 -32 7 40 c4 29 15 48 38 66 l33 25 29 -23 c35 -26 44 -46 23 -46 -9 0
-17 -5 -19 -11 -3 -9 -9 -9 -25 0 -26 13 -63 15 -63 2 0 -5 -3 -17 -7 -27 -4
-12 -3 -15 5 -10 7 4 12 1 12 -9 0 -13 4 -14 21 -5 27 15 120 22 138 11 19
-12 5 -31 -24 -31 -41 0 -76 -21 -69 -42 9 -30 -33 -22 -50 10 -8 15 -15 22
-16 16 0 -5 14 -32 31 -58 23 -36 33 -46 42 -37 14 14 37 15 37 1 0 -5 -6 -10
-14 -10 -31 0 -38 -27 -18 -69 l20 -40 -22 -18 c-11 -10 -38 -26 -58 -36 -21
-9 -38 -22 -38 -27 0 -6 6 -8 13 -4 8 5 7 2 -2 -9 -8 -10 -21 -15 -32 -12 -12
4 -22 -1 -29 -15 -6 -11 -15 -20 -21 -20 -12 0 22 46 35 47 5 1 12 5 15 10 3
5 21 19 39 32 46 32 40 44 -10 18 -23 -12 -57 -42 -75 -67 -18 -25 -40 -53
-49 -62 -15 -15 -13 -18 16 -33 38 -20 162 -67 164 -63 27 63 129 201 141 190
4 -4 4 11 1 33 -6 33 -3 46 14 67 12 15 16 28 9 30 -15 5 -24 84 -10 92 7 5
11 -3 11 -23 0 -37 9 -62 21 -55 5 3 9 16 9 30 0 13 5 24 11 24 7 0 8 14 4 39
-3 22 -2 56 4 77 8 30 8 41 -4 54 -22 25 -18 36 5 15 22 -20 25 -46 11 -73
-14 -26 2 -88 21 -84 12 2 15 -3 11 -18 -3 -11 0 -20 6 -20 6 0 11 5 11 10 0
6 9 10 20 10 15 0 20 -7 20 -29 0 -29 0 -30 -27 -15 -33 16 -52 17 -73 4 -11
-7 -7 -9 15 -5 69 13 134 -70 135 -172 0 -28 5 -55 10 -58 6 -3 10 2 10 12 0
10 9 24 20 31 11 7 20 18 20 26 0 8 7 16 15 20 8 3 15 14 15 24 0 39 24 72 53
72 17 0 27 5 27 15 0 11 8 14 29 10 l29 -5 -15 31 c-8 16 -16 52 -16 80 -1 27
-5 49 -9 49 -4 0 -11 18 -14 40 -4 26 -13 41 -25 45 -11 4 -24 23 -31 47 -6
22 -18 42 -25 45 -7 3 -13 11 -13 19 0 8 -4 14 -10 14 -5 0 -10 13 -10 28 0
16 -3 32 -7 36 -5 4 -9 27 -9 50 -2 48 -12 88 -22 82 -4 -2 -8 14 -9 37 -1 34
5 48 29 73 26 28 28 33 14 41 -14 8 -15 15 -7 36 12 31 31 36 31 8 0 -17 4
-19 33 -10 17 5 38 18 46 29 17 26 52 21 171 -25z m-1490 -234 c-1 -10 -6 -7
-15 9 -19 33 -18 50 0 26 8 -11 15 -27 15 -35z m99 -171 c5 0 11 -10 14 -22 5
-18 4 -19 -8 -7 -19 20 -85 131 -85 143 0 6 16 -17 36 -51 19 -35 39 -63 43
-63z m721 110 c-8 -5 -19 -10 -25 -10 -5 0 -3 5 5 10 8 5 20 10 25 10 6 0 3
-5 -5 -10z m100 -13 c30 -15 52 -35 67 -62 27 -48 31 -81 6 -45 -10 14 -18 27
-18 30 -1 11 -57 60 -69 60 -7 0 -23 9 -36 20 -31 27 -7 25 50 -3z m-762 -54
c-2 -10 -11 -19 -21 -21 -16 -3 -17 -1 -7 17 13 25 33 28 28 4z m720 0 c2 -8
-5 -13 -17 -13 -21 0 -35 13 -24 24 10 10 36 3 41 -11z m-118 -6 c0 -15 -47
-44 -56 -35 -7 8 32 48 46 48 6 0 10 -6 10 -13z m186 -98 c8 -17 14 -35 12
-40 -2 -6 -14 11 -26 36 -24 50 -12 53 14 4z m-741 11 c3 -11 11 -19 17 -17 6
1 13 -4 16 -12 3 -9 0 -11 -8 -6 -7 4 -5 -6 5 -25 9 -18 23 -49 30 -70 11 -32
11 -38 -1 -36 -7 1 -16 5 -20 8 -3 4 -11 5 -17 2 -7 -2 -25 16 -40 40 -23 36
-26 49 -18 65 6 11 11 31 11 45 0 31 16 34 25 6z m810 -18 c-6 -7 -35 18 -35
31 0 5 9 2 20 -8 11 -10 18 -20 15 -23z m-755 -42 c0 -5 -2 -10 -4 -10 -3 0
-8 5 -11 10 -3 6 -1 10 4 10 6 0 11 -4 11 -10z m25 -52 l16 -33 -20 25 c-20
24 -26 40 -16 40 2 0 12 -15 20 -32z m695 -11 c0 -18 -3 -43 -7 -57 -7 -25 -7
-25 -13 5 -7 40 0 96 11 89 5 -3 9 -20 9 -37z m-700 -67 c0 -5 -4 -10 -10 -10
-5 0 -10 5 -10 10 0 6 5 10 10 10 6 0 10 -4 10 -10z m-1000 -164 c7 -19 20
-27 60 -35 28 -6 63 -11 78 -11 15 0 42 -4 61 -10 29 -8 42 -5 83 15 57 29
100 31 143 9 20 -10 43 -14 71 -9 50 7 89 -7 131 -47 39 -38 77 -41 121 -10
16 12 35 22 41 22 6 0 32 7 58 16 33 11 48 13 51 5 5 -15 32 -14 32 2 1 32 23
-32 26 -75 3 -42 0 -53 -21 -74 -13 -13 -31 -24 -40 -24 -19 0 -19 -13 0 -78
14 -47 18 -52 45 -52 17 0 30 5 30 13 1 6 16 30 35 51 l35 39 0 -41 c0 -22 -4
-43 -9 -46 -17 -11 -4 -124 18 -167 13 -23 20 -51 17 -62 -5 -22 9 -57 24 -57
5 0 7 8 4 18 -5 14 -3 14 10 -2 9 -11 16 -25 16 -30 1 -6 12 -24 25 -41 25
-31 39 -28 48 10 4 18 5 18 6 -2 0 -13 6 -23 11 -23 6 0 10 -9 10 -20 0 -11 6
-22 13 -24 44 -13 45 -15 39 -43 l-6 -28 -6 27 -5 27 -27 -24 c-16 -13 -28
-33 -28 -45 0 -17 -3 -19 -19 -10 -25 13 -35 -1 -27 -36 7 -26 -3 -31 -22 -12
-9 9 -12 8 -12 -4 0 -9 7 -19 16 -22 15 -6 15 -8 -1 -26 -10 -11 -18 -34 -17
-51 0 -23 -2 -29 -10 -21 -6 6 -11 28 -10 48 1 33 0 36 -23 32 -16 -4 -25 -1
-25 8 0 7 -14 20 -32 28 -38 19 -51 20 -43 4 4 -7 0 -5 -8 4 -17 21 -54 20
-89 -4 -14 -10 -36 -18 -47 -18 -12 0 -21 -6 -21 -14 0 -7 -7 -19 -15 -26 -20
-16 -12 -90 10 -102 8 -5 15 -20 15 -33 0 -13 5 -27 10 -30 6 -3 10 2 10 11 0
24 11 10 25 -30 11 -31 10 -35 -6 -39 -14 -4 -19 -15 -19 -44 l-1 -38 -16 30
c-10 17 -17 48 -18 70 0 22 -4 41 -10 43 -14 4 -19 -36 -6 -51 7 -9 -2 -17
-35 -31 -61 -25 -51 -53 11 -31 18 6 18 6 2 -5 -12 -7 -16 -18 -12 -31 6 -18
5 -18 -24 -1 -17 9 -31 20 -31 25 0 4 -6 7 -14 7 -10 0 -17 -16 -22 -45 l-6
-45 -52 0 c-59 0 -81 -13 -90 -53 l-7 -28 38 24 c52 31 109 24 105 -13 -3 -32
-12 -39 -47 -42 -34 -3 -44 -9 -91 -57 -37 -38 -51 -35 -52 9 -1 30 12 40 22
18 3 -7 5 2 3 20 -2 17 1 32 6 32 6 0 8 3 4 6 -3 3 -1 18 4 32 10 26 10 26
-10 7 -12 -10 -21 -24 -21 -32 0 -7 -4 -13 -10 -13 -14 0 -12 21 3 39 28 33
39 99 27 156 -6 30 -16 57 -21 60 -5 4 -9 15 -9 26 0 15 5 19 18 15 23 -7 39
4 51 36 7 20 7 29 -1 34 -7 4 -14 2 -16 -4 -8 -26 -21 -10 -28 34 l-7 47 -18
-24 c-12 -16 -15 -28 -8 -41 13 -25 -11 -36 -28 -12 -12 16 -12 20 2 30 8 6
15 19 15 28 0 19 -26 22 -33 4 -2 -7 -7 -10 -11 -7 -3 3 0 18 7 33 9 20 18 26
35 23 42 -8 32 11 -13 22 -66 17 -125 14 -125 -5 0 -8 -4 -13 -9 -9 -6 3 -6
16 0 34 7 18 6 37 -1 56 -12 32 -7 43 13 26 12 -9 17 -5 27 18 11 27 9 33 -14
64 -26 34 -26 35 -5 40 18 5 20 8 8 19 -24 24 -86 48 -122 48 -49 0 -82 -31
-102 -94 -16 -51 -16 -56 1 -92 13 -27 20 -34 22 -21 4 22 14 22 35 -3 9 -11
12 -20 7 -20 -16 0 -11 -19 11 -41 11 -11 26 -18 33 -16 7 3 13 -1 13 -8 0
-10 -5 -11 -18 -4 -27 14 -52 11 -45 -6 7 -18 -24 -16 -48 4 -10 8 -16 9 -16
3 0 -6 5 -14 10 -17 15 -9 12 -25 -5 -25 -8 0 -15 5 -15 11 0 5 -4 7 -10 4 -6
-3 -9 9 -7 31 1 27 -3 39 -18 48 -89 52 -94 56 -101 91 -4 26 -10 33 -18 26
-13 -11 -30 -3 -34 19 -2 8 -12 20 -23 28 -25 18 -25 36 0 22 34 -18 33 -11
-4 34 -25 30 -32 46 -23 49 7 3 4 5 -7 6 -47 2 -55 6 -66 33 -7 18 -17 27 -25
24 -8 -3 -19 4 -25 15 -8 17 -16 19 -42 13 -18 -3 -35 -12 -39 -18 -8 -13 0
-55 15 -75 6 -7 12 -19 13 -26 4 -27 32 -56 75 -78 24 -12 44 -26 45 -32 6
-59 18 -93 31 -88 12 5 14 1 9 -14 -5 -15 2 -29 23 -51 19 -19 26 -33 20 -39
-13 -13 29 -66 47 -59 8 3 19 -5 25 -17 15 -28 28 -37 55 -37 34 0 95 -84 101
-138 1 -13 9 -35 17 -48 9 -13 16 -30 16 -39 0 -8 4 -15 8 -15 4 0 13 -15 20
-32 6 -18 22 -44 35 -58 13 -14 22 -31 19 -38 -2 -6 3 -12 11 -12 21 0 41 -49
26 -66 -9 -11 -8 -14 1 -14 10 0 10 -3 0 -15 -7 -8 -10 -21 -7 -29 3 -8 2 -29
-3 -45 -5 -17 -6 -31 -2 -31 14 0 11 -59 -3 -70 -19 -16 -19 -31 0 -24 9 4 19
-3 26 -20 7 -14 19 -27 28 -29 12 -3 10 -7 -9 -16 -14 -7 -42 -35 -62 -62 -31
-40 -37 -54 -32 -79 4 -17 11 -33 15 -36 5 -3 7 -9 4 -14 -3 -5 -25 12 -49 37
l-43 46 -7 -37 c-6 -32 -3 -43 20 -73 14 -19 39 -43 55 -52 31 -19 81 -105 72
-126 -2 -8 -11 -16 -19 -19 -10 -4 -13 -13 -9 -26 7 -24 -4 -90 -16 -90 -5 0
-6 6 -3 14 3 8 1 17 -5 21 -7 3 -11 -2 -11 -14 0 -28 -30 -56 -76 -71 -22 -7
-45 -17 -51 -22 -9 -8 -16 2 -25 35 -8 30 -20 50 -38 61 -53 31 -109 96 -116
134 -6 39 -21 91 -35 130 -6 15 -17 22 -36 22 -16 0 -43 9 -60 20 -31 18 -33
23 -33 74 0 58 -16 86 -50 86 -24 0 -40 29 -80 155 -64 202 -90 374 -90 605 0
226 35 447 104 647 42 124 107 263 123 263 16 0 62 49 63 68 0 7 7 15 15 18 8
4 15 12 15 19 0 16 60 45 93 45 14 0 29 5 32 10 12 19 45 10 55 -14z m907 -28
c-3 -8 -6 -5 -6 6 -1 11 2 17 5 13 3 -3 4 -12 1 -19z m862 -72 c10 -12 8 -13
-8 -9 -12 3 -18 9 -15 14 7 12 10 11 23 -5z m-639 -26 c-14 -9 -40 -3 -40 9 0
16 14 20 33 10 15 -9 17 -13 7 -19z m635 -87 c-19 -27 -60 -75 -91 -108 l-56
-60 44 55 c81 102 130 160 134 160 2 0 -12 -21 -31 -47z m92 15 c-3 -7 -5 -2
-5 12 0 14 2 19 5 13 2 -7 2 -19 0 -25z m-807 -158 c0 -5 -5 -10 -11 -10 -5 0
-7 5 -4 10 3 6 8 10 11 10 2 0 4 -4 4 -10z m168 -131 c-2 -43 -12 -49 -28 -19
-14 26 -3 70 16 63 10 -4 14 -18 12 -44z m187 -149 c39 -6 26 -7 -63 -7 -88 1
-116 -2 -123 -14 -7 -12 -9 -12 -9 2 0 9 3 19 7 22 8 9 125 7 188 -3z m124
-16 c2 -2 -10 -4 -27 -4 -17 0 -34 4 -37 10 -5 9 53 3 64 -6z m-89 -14 c0 -5
-7 -7 -15 -4 -8 4 -15 8 -15 10 0 2 7 4 15 4 8 0 15 -4 15 -10z m177 4 c-3 -3
-12 -4 -19 -1 -8 3 -5 6 6 6 11 1 17 -2 13 -5z m149 -81 c-3 -10 3 -29 14 -43
20 -25 20 -25 20 -2 0 15 6 22 18 22 21 0 37 -29 47 -84 6 -29 4 -36 -9 -36
-8 0 -22 12 -31 28 -16 27 -16 27 -9 -18 4 -29 3 -41 -4 -35 -17 18 -64 155
-58 170 8 21 18 19 12 -2z m-151 -23 c18 -20 17 -20 -14 -20 -18 0 -46 -7 -62
-16 -28 -14 -33 -14 -55 1 l-25 16 22 20 c31 27 109 26 134 -1z m-155 0 c-8
-5 -19 -10 -25 -10 -5 0 -3 5 5 10 8 5 20 10 25 10 6 0 3 -5 -5 -10z m-1280
-15 c0 -2 -13 -5 -30 -7 -19 -3 -30 0 -30 7 0 7 11 10 30 7 17 -2 30 -5 30 -7z
m1440 -53 c0 -15 6 -34 13 -41 10 -11 9 -13 -6 -8 -10 4 -29 0 -43 -9 -13 -9
-27 -14 -31 -10 -3 3 -1 6 5 6 17 0 15 50 -2 56 -25 10 -7 29 29 31 32 3 35 1
35 -25z m-1410 -1 c0 -26 -16 -35 -24 -15 -10 25 -7 34 9 34 8 0 15 -9 15 -19z
m37 13 c-3 -3 -12 -4 -19 -1 -8 3 -5 6 6 6 11 1 17 -2 13 -5z m-327 -30 c0 -8
-4 -12 -10 -9 -5 3 -10 10 -10 16 0 5 5 9 10 9 6 0 10 -7 10 -16z m1590 -4 c0
-5 -2 -10 -4 -10 -3 0 -8 5 -11 10 -3 6 -1 10 4 10 6 0 11 -4 11 -10z m-564
-58 c-4 -3 -14 2 -24 12 -16 18 -16 18 6 6 13 -6 21 -14 18 -18z m808 3 c3 -8
1 -15 -4 -15 -6 0 -10 7 -10 15 0 8 2 15 4 15 2 0 6 -7 10 -15z m-728 -39 c-6
-19 -12 -33 -14 -31 -7 6 9 65 17 65 5 0 3 -15 -3 -34z m50 -21 c-1 -14 -6
-28 -9 -32 -4 -3 -7 -16 -8 -27 -1 -16 -3 -14 -9 8 -7 21 -5 32 6 43 7 8 14
19 14 24 0 5 2 9 4 9 3 0 3 -11 2 -25z m-683 -32 c-7 -2 -13 -10 -13 -18 0 -7
-7 -18 -15 -25 -13 -10 -15 -9 -15 8 0 20 24 42 45 41 6 0 4 -3 -2 -6z m-103
-29 c0 -2 -9 0 -20 6 -11 6 -20 13 -20 16 0 2 9 0 20 -6 11 -6 20 -13 20 -16z
m790 -54 c0 -16 -4 -30 -10 -30 -11 0 -14 43 -3 53 11 12 13 8 13 -23z m-655
0 c-3 -5 -15 -10 -26 -10 -11 0 -17 5 -14 10 3 6 15 10 26 10 11 0 17 -4 14
-10z m625 -19 c0 -11 5 -23 10 -26 14 -9 12 -83 -4 -135 -8 -25 -15 -36 -15
-24 -1 12 4 36 10 54 9 25 9 34 -1 40 -13 8 -29 77 -22 98 6 19 22 14 22 -7z
m-120 -162 c0 -11 -4 -18 -10 -14 -5 3 -7 12 -3 20 7 21 13 19 13 -6z m-77 -9
c3 -11 3 -20 1 -20 -2 0 -8 9 -14 20 -6 11 -7 20 -2 20 6 0 12 -9 15 -20z
m178 -67 c-12 -20 -14 -14 -5 12 4 9 9 14 11 11 3 -2 0 -13 -6 -23z m-351 -58
c0 -8 -4 -15 -10 -15 -5 0 -10 7 -10 15 0 8 5 15 10 15 6 0 10 -7 10 -15z
m-10 -96 c0 -10 5 -19 12 -21 7 -3 -15 -13 -47 -24 -46 -14 -65 -27 -80 -51
-23 -37 -35 -42 -35 -14 0 10 -9 21 -20 24 -21 5 -27 31 -10 42 6 3 10 -1 10
-9 0 -9 5 -16 10 -16 6 0 10 9 10 20 0 11 -5 20 -11 20 -8 0 -7 5 1 15 10 12
15 13 21 4 5 -8 11 -5 20 10 8 11 21 21 30 21 9 0 20 7 23 16 5 14 9 13 36 -3
16 -9 30 -25 30 -34z m1209 -40 c17 -44 31 -86 31 -92 -1 -16 -33 43 -37 67
-2 11 -9 26 -15 34 -7 8 -13 20 -14 27 -1 7 -5 23 -9 35 -5 14 -3 20 3 16 6
-3 24 -42 41 -87z m-1029 -29 c0 -5 -4 -10 -10 -10 -5 0 -10 5 -10 10 0 6 5
10 10 10 6 0 10 -4 10 -10z m86 -75 c18 -13 18 -14 -4 -8 -12 3 -25 9 -28 14
-8 14 10 11 32 -6z m-278 -2 c-1 -5 6 -23 16 -42 29 -54 37 -91 21 -91 -8 0
-19 8 -25 18 -10 14 -10 13 -5 -8 4 -14 10 -43 15 -65 5 -22 12 -48 15 -57 9
-22 7 -22 -38 -3 -40 16 -53 30 -37 40 5 3 10 1 10 -5 0 -6 5 -8 10 -5 13 8
13 44 -1 84 -8 22 -17 31 -33 31 -27 0 -46 18 -46 43 0 10 -4 16 -8 13 -4 -2
-13 4 -20 15 -7 11 -8 19 -2 19 5 0 10 -4 10 -10 0 -5 12 -13 28 -16 15 -4 33
-12 41 -18 12 -9 13 -7 9 12 -4 16 0 26 15 37 24 17 28 18 25 8z m282 -32 c0
-5 9 -13 20 -16 25 -8 27 -45 3 -45 -10 1 -29 10 -42 20 -19 17 -21 23 -11 35
14 17 30 20 30 6z m-516 -77 c9 -3 16 -10 16 -15 0 -14 -34 -11 -56 6 -19 14
-19 14 3 15 12 0 28 -3 37 -6z m191 -25 c6 -19 0 -38 -9 -28 -10 12 -16 49 -7
49 5 0 13 -9 16 -21z m-65 -19 c0 -5 -4 -10 -10 -10 -5 0 -10 5 -10 10 0 6 5
10 10 10 6 0 10 -4 10 -10z m305 0 c3 -5 2 -10 -3 -10 -6 0 -17 -18 -26 -39
-11 -29 -21 -39 -36 -38 -29 2 -28 60 2 81 26 18 54 21 63 6z m-98 -6 c-3 -3
-12 -4 -19 -1 -8 3 -5 6 6 6 11 1 17 -2 13 -5z m206 -31 c26 -9 47 -20 47 -23
0 -4 14 -5 30 -2 18 3 30 0 30 -7 0 -6 -9 -11 -19 -11 -10 0 -22 -7 -25 -16
-3 -9 -13 -14 -20 -11 -8 3 -20 -1 -26 -9 -22 -26 -33 -15 -27 27 4 34 3 40
-11 37 -9 -2 -24 -17 -32 -33 -15 -30 -43 -44 -55 -26 -9 15 6 62 19 60 27 -3
38 2 32 16 -7 19 -1 19 57 -2z m394 -53 c13 0 23 -5 23 -11 0 -13 -41 -2 -58
17 -7 9 -8 10 0 4 7 -6 22 -10 35 -10z m-120 4 c-3 -3 -12 -4 -19 -1 -8 3 -5
6 6 6 11 1 17 -2 13 -5z m-992 -84 c-3 -5 -11 -10 -16 -10 -6 0 -7 5 -4 10 3
6 11 10 16 10 6 0 7 -4 4 -10z m85 -50 c0 -5 -4 -10 -10 -10 -5 0 -10 5 -10
10 0 6 5 10 10 10 6 0 10 -4 10 -10z m684 -6 c22 -9 20 -21 -5 -27 -16 -4 -19
-11 -14 -26 4 -12 2 -21 -4 -21 -6 0 -11 6 -11 14 0 7 -7 19 -15 26 -20 16
-19 27 3 33 27 7 29 7 46 1z m-81 -40 c3 -4 -1 -13 -9 -21 -17 -18 -29 -11
-21 12 7 16 19 20 30 9z m102 -14 c-3 -5 -10 -10 -16 -10 -5 0 -9 5 -9 10 0 6
7 10 16 10 8 0 12 -4 9 -10z m499 -54 c-3 -15 -13 -26 -23 -26 -10 0 -12 3 -5
8 6 4 15 17 19 30 9 32 18 21 9 -12z m141 -38 c-10 -31 -25 -47 -25 -26 0 24
11 48 22 48 5 0 6 -10 3 -22z m-885 -22 c78 -19 97 -28 107 -47 7 -13 13 -18
13 -11 0 6 7 12 15 12 8 0 15 7 15 15 0 11 7 14 23 10 12 -2 83 -7 158 -9 150
-6 176 -11 158 -32 -13 -16 -3 -37 13 -28 8 5 9 1 5 -10 -4 -10 -7 -22 -7 -27
0 -11 -37 -12 -42 -1 -1 5 -39 3 -83 -3 -100 -15 -135 -25 -135 -36 0 -12 11
-11 60 6 23 8 59 15 79 14 25 -1 5 -8 -64 -23 -75 -17 -105 -20 -122 -12 -16
8 -18 12 -8 14 8 2 15 7 15 12 0 5 12 10 27 12 29 3 43 32 26 49 -15 15 -149
22 -173 9 -12 -7 -49 -13 -81 -13 -39 -1 -63 -7 -68 -16 -6 -9 -11 -1 -16 28
-6 38 -8 40 -20 24 -12 -16 -13 -13 -5 21 5 22 8 42 8 45 -1 9 2 21 5 21 1 -1
45 -11 97 -24z m643 -8 c3 -9 -7 -14 -28 -15 -18 -1 -47 -9 -64 -17 -17 -9
-31 -13 -31 -8 0 8 16 17 70 40 34 14 47 14 53 0z m-898 -16 c14 -10 45 -59
45 -72 0 -16 -25 -12 -43 8 -8 9 -19 29 -22 45 -7 27 0 34 20 19z m101 -44
c-19 -27 -21 -10 -4 28 10 21 14 24 16 11 2 -9 -4 -27 -12 -39z m-41 -58 c3
-5 2 -10 -4 -10 -5 0 -13 5 -16 10 -3 6 -2 10 4 10 5 0 13 -4 16 -10z m156
-23 c-16 -16 -26 0 -10 19 9 11 15 12 17 4 2 -6 -1 -17 -7 -23z m483 -2 c-4
-8 -8 -15 -10 -15 -2 0 -4 7 -4 15 0 8 4 15 10 15 5 0 7 -7 4 -15z m1126 -15
c24 -8 24 -8 -7 -9 -17 -1 -35 4 -38 9 -7 11 9 11 45 0z m-1865 -50 c-11 -5
-29 -9 -40 -9 -17 -1 -17 1 -5 9 8 5 26 9 40 9 23 0 23 -1 5 -9z m908 -16
l207 -17 0 -119 0 -118 -65 0 -65 0 0 -325 0 -325 -125 0 -125 0 0 345 0 345
-59 0 -59 0 -4 108 c-3 59 -2 113 0 120 3 9 17 11 46 8 22 -3 134 -13 249 -22z"/>
<path d="M3070 3970 c0 -5 5 -10 11 -10 5 0 7 5 4 10 -3 6 -8 10 -11 10 -2 0
-4 -4 -4 -10z"/>
<path d="M2495 3798 c4 -10 -7 -29 -29 -50 -20 -19 -36 -38 -36 -41 0 -8 73 4
84 13 16 15 56 -32 58 -69 l1 -36 4 32 c3 24 -3 42 -20 65 -14 18 -28 43 -31
55 -4 11 -13 27 -22 34 -12 10 -13 9 -9 -3z"/>
<path d="M3150 3630 c0 -5 7 -10 15 -10 8 0 15 5 15 10 0 6 -7 10 -15 10 -8 0
-15 -4 -15 -10z"/>
<path d="M3558 3454 c17 -14 32 -30 32 -36 0 -5 -14 2 -31 17 -18 14 -38 24
-45 21 -7 -3 -15 0 -18 7 -2 7 -8 2 -12 -11 -4 -15 -9 -19 -14 -13 -7 13 -40
4 -40 -10 0 -4 8 -5 18 -2 9 4 -8 -15 -38 -41 -30 -27 -61 -61 -68 -75 -11
-24 -12 -24 -6 14 l6 40 -19 -30 c-17 -26 -18 -33 -6 -55 7 -14 13 -34 13 -45
0 -12 5 -26 11 -32 8 -8 6 -27 -6 -68 -16 -57 -16 -58 6 -81 22 -24 22 -24 3
-39 -10 -8 4 -5 31 8 72 32 75 35 75 67 0 27 3 29 28 24 15 -3 47 1 72 10 50
17 90 21 90 7 0 -4 -23 -22 -50 -39 -28 -17 -55 -43 -62 -57 -6 -14 -18 -25
-25 -25 -28 0 -122 -51 -128 -69 -6 -19 -26 -18 -91 3 -16 5 -23 -1 -37 -29
-9 -20 -17 -48 -17 -62 0 -33 -8 -26 -26 24 l-15 38 5 -51 c4 -48 3 -52 -22
-65 -15 -8 -31 -20 -35 -26 -4 -7 -14 -13 -22 -13 -21 0 -6 -41 26 -72 41 -38
37 -60 -15 -81 -23 -10 -52 -26 -64 -37 -11 -11 -22 -16 -25 -12 -2 4 -2 1 0
-7 2 -8 -2 -18 -9 -22 -9 -6 -8 -13 6 -28 25 -27 34 -26 46 4 14 36 69 58 110
44 29 -10 30 -13 15 -29 -8 -9 -32 -22 -53 -29 -20 -6 -52 -25 -71 -42 -31
-28 -33 -34 -21 -53 13 -21 13 -21 -9 -2 -24 22 -22 22 -44 -19 -9 -16 -16
-24 -17 -17 0 18 -50 15 -50 -3 0 -9 9 -15 24 -15 17 0 25 -7 28 -25 3 -13 1
-22 -4 -19 -16 10 -48 -7 -48 -26 0 -14 5 -18 16 -13 14 5 15 0 9 -44 -8 -63
10 -82 20 -21 8 52 35 118 48 118 5 0 5 -5 -1 -12 -15 -19 -13 -111 3 -158 8
-22 10 -38 5 -35 -9 5 -4 -44 10 -94 11 -45 102 -51 214 -14 43 14 50 20 71
67 23 50 29 50 37 1 4 -21 9 -22 108 -11 25 3 101 23 169 45 68 22 130 37 139
34 11 -5 13 -3 7 7 -5 9 -4 11 3 6 6 -4 42 2 78 14 75 23 99 21 32 -3 -375
-130 -424 -150 -441 -173 -10 -13 -23 -24 -29 -24 -7 0 -6 5 1 14 10 12 8 13
-9 9 -16 -4 -19 -11 -14 -27 10 -35 49 -96 113 -181 34 -44 64 -91 68 -105 19
-76 180 -372 201 -369 23 4 42 -3 37 -11 -5 -8 -11 -7 -21 1 -20 16 -17 4 8
-41 21 -35 28 -39 73 -45 27 -3 62 -8 78 -11 31 -6 32 -4 12 62 -8 27 -15 69
-15 94 0 95 -48 211 -122 294 -28 33 -35 49 -31 66 4 15 1 27 -9 34 -12 9 -18
44 -26 136 -6 69 -8 128 -6 132 3 4 26 17 52 29 39 18 44 22 28 28 -18 7 -18
8 -2 14 12 5 15 13 11 26 -5 16 3 22 45 36 50 17 110 58 110 76 0 14 -49 11
-115 -6 -58 -15 -59 -15 -81 7 -26 27 -40 93 -23 104 8 4 4 11 -12 21 -22 13
-22 13 -2 8 18 -5 20 -2 16 15 -3 11 -19 32 -37 46 -17 15 -36 43 -42 63 -10
34 -12 36 -50 34 l-39 -3 -3 45 c-2 43 13 69 27 46 4 -6 14 -9 22 -6 8 3 23
-9 38 -30 29 -43 48 -49 95 -30 20 9 41 13 46 10 12 -7 60 42 60 61 0 8 -11
12 -27 11 -24 -2 -28 2 -28 23 0 25 5 27 38 15 16 -7 15 -3 -4 29 -12 20 -20
38 -18 40 18 16 94 46 118 46 23 0 30 -5 36 -27 5 -22 8 -24 17 -12 8 11 9 10
4 -4 -6 -19 51 -114 62 -103 3 3 10 2 16 -3 6 -4 28 -11 50 -14 43 -7 112 16
101 33 -3 5 -2 10 3 10 6 0 8 8 6 18 -6 22 31 82 51 82 8 0 15 4 15 8 0 4 14
16 30 25 34 20 37 32 15 53 -18 19 -20 38 -2 28 9 -6 8 -4 -1 8 -13 16 -84 36
-127 36 -26 -1 -154 -55 -179 -77 -18 -15 -19 -15 -13 4 7 18 6 19 -6 3 -8
-10 -17 -15 -20 -11 -13 12 -7 33 14 54 18 18 20 25 10 40 -6 10 -11 31 -11
46 0 16 -5 35 -11 43 -8 11 -9 -1 -5 -46 3 -40 1 -65 -6 -72 -16 -16 -28 -15
-28 3 0 8 -5 15 -11 15 -8 0 -10 -12 -6 -33 4 -29 1 -36 -23 -50 -30 -18 -56
-24 -30 -7 13 9 13 10 -1 10 -8 0 -24 -7 -35 -15 -24 -18 -34 -19 -34 -1 0 21
-17 29 -37 17 -14 -8 -15 -10 -3 -11 21 0 -64 -55 -110 -70 -28 -9 -37 -17
-33 -29 3 -12 2 -12 -7 2 -14 22 7 41 102 92 74 39 87 52 64 61 -20 8 -21 24
-1 24 25 0 35 41 18 73 -13 27 -16 28 -32 13 -26 -24 -39 -20 -33 11 4 22 2
25 -12 20 -27 -11 -52 57 -39 105 10 36 9 37 -11 25 -12 -6 -35 -11 -53 -12
-31 0 -31 1 -18 22 22 33 18 43 -17 44 -30 0 -31 1 -11 11 26 13 36 64 16 84
-18 17 -25 18 -41 2 -7 -7 -12 -8 -12 -2 0 5 10 15 21 23 16 9 18 15 10 21 -7
4 -14 19 -15 34 -4 34 -66 106 -91 106 -5 0 5 -12 23 -26z m10 -42 c16 -15 35
-26 41 -24 6 2 11 -1 11 -8 0 -6 -4 -8 -10 -5 -5 3 -10 2 -10 -4 0 -5 5 -13
10 -16 6 -3 10 -11 10 -17 0 -6 -18 10 -41 36 -22 25 -47 46 -55 46 -8 0 -14
5 -14 10 0 19 28 10 58 -18z m-68 -17 c0 -7 -14 -24 -31 -36 -27 -19 -30 -26
-26 -55 4 -21 1 -37 -8 -44 -8 -6 -11 -18 -8 -26 3 -8 -1 -14 -7 -14 -9 0 -8
-6 4 -19 11 -12 26 -17 44 -14 26 4 26 4 8 -11 -25 -20 -36 -20 -64 0 -28 19
-32 97 -6 112 12 7 15 17 11 33 -5 19 2 32 30 61 35 36 53 41 53 13z m17 -85
c-2 -3 -10 -20 -17 -37 -13 -29 -33 -47 -28 -25 0 4 -2 15 -6 25 -12 26 0 45
28 43 14 0 25 -3 23 -6z m-142 -159 c-3 -6 -11 -11 -17 -11 -6 0 -6 6 2 15 14
17 26 13 15 -4z m315 -80 c0 -5 -7 -12 -16 -15 -14 -5 -15 -4 -4 9 14 17 20
19 20 6z m-63 -52 c-14 -20 -17 -20 -23 -6 -8 21 15 52 29 38 6 -6 4 -17 -6
-32z m768 -217 c-8 -8 -25 10 -25 26 0 13 2 13 14 -4 8 -10 13 -21 11 -22z
m-329 -29 c-8 -15 -15 -25 -16 -21 0 12 23 58 27 54 3 -2 -2 -17 -11 -33z
m-176 11 c0 -7 -66 -34 -82 -34 -7 0 5 9 27 19 43 21 55 24 55 15z m-725 -23
c7 -12 -12 -24 -25 -16 -11 7 -4 25 10 25 5 0 11 -4 15 -9z m115 -13 c-1 -18
-39 -102 -45 -96 -7 6 28 108 37 108 4 0 8 -6 8 -12z m360 -86 c0 -5 -35 -25
-77 -46 -43 -20 -98 -48 -123 -60 -25 -13 -48 -22 -52 -19 -5 2 -8 0 -8 -5 0
-6 -7 -12 -15 -16 -8 -3 -15 -1 -15 4 0 8 273 149 288 150 1 0 2 -4 2 -8z
m-580 -152 c0 -5 -2 -10 -4 -10 -3 0 -8 5 -11 10 -3 6 -1 10 4 10 6 0 11 -4
11 -10z m658 -118 c6 -18 -15 -14 -22 4 -4 10 -1 14 6 12 6 -2 14 -10 16 -16z
m-208 -148 c-7 -19 -15 -33 -18 -30 -3 3 1 25 8 47 8 23 16 37 18 30 2 -6 -2
-27 -8 -47z"/>
<path d="M4137 3233 c-13 -13 -7 -23 16 -23 19 -1 19 -2 -8 -15 -29 -13 -30
-13 -5 -14 14 -1 35 -4 46 -7 16 -4 23 0 27 17 3 13 1 29 -5 36 -11 14 -60 18
-71 6z"/>
<path d="M4011 3164 c-27 -35 -34 -60 -27 -100 8 -41 23 -52 40 -28 7 9 18 14
24 10 6 -3 13 2 16 12 4 10 16 29 27 41 28 29 15 40 -22 19 -33 -20 -35 -18
-13 23 15 30 15 30 -6 19 -20 -11 -21 -10 -15 9 9 28 1 26 -24 -5z"/>
<path d="M4242 3140 c0 -19 2 -27 5 -17 2 9 2 25 0 35 -3 9 -5 1 -5 -18z"/>
<path d="M4145 3141 c-16 -7 -13 -9 20 -15 37 -7 38 -9 21 -22 -17 -12 -17
-17 -6 -44 7 -17 22 -36 33 -41 19 -11 19 -11 -1 -32 -19 -18 -19 -22 -6 -32
13 -9 7 -15 -34 -38 -27 -15 -54 -27 -58 -27 -5 1 8 10 29 21 42 22 45 35 5
20 -24 -9 -57 -41 -42 -41 4 0 -1 -7 -12 -15 -17 -14 -16 -14 16 -1 51 20 134
58 139 62 3 2 -4 11 -15 20 -18 14 -17 15 16 9 19 -4 43 -9 53 -11 12 -4 17 0
17 15 0 14 -6 21 -19 21 -10 0 -24 7 -31 15 -7 8 -17 12 -24 8 -6 -3 -8 -3 -4
2 11 12 -11 35 -28 28 -8 -3 -14 0 -14 7 0 6 4 9 9 5 6 -3 15 3 20 14 14 25
14 34 1 26 -6 -4 -10 7 -10 24 0 27 -3 31 -27 30 -16 0 -37 -4 -48 -8z"/>
<path d="M3810 3060 c0 -5 5 -10 10 -10 6 0 10 5 10 10 0 6 -4 10 -10 10 -5 0
-10 -4 -10 -10z"/>
<path d="M4339 2972 c6 -12 16 -24 22 -28 8 -4 8 -1 0 14 -6 12 -16 24 -22 28
-8 4 -8 1 0 -14z"/>
<path d="M3210 2945 c-7 -9 -11 -17 -9 -20 3 -2 10 5 17 15 14 24 10 26 -8 5z"/>
<path d="M3805 2810 c-3 -6 1 -7 9 -4 18 7 21 14 7 14 -6 0 -13 -4 -16 -10z"/>
<path d="M4430 2813 c0 -6 8 -17 18 -24 16 -13 16 -13 2 6 -8 11 -16 22 -17
24 -2 2 -3 0 -3 -6z"/>
<path d="M4315 2650 c-3 -5 -1 -10 4 -10 6 0 11 5 11 10 0 6 -2 10 -4 10 -3 0
-8 -4 -11 -10z"/>
<path d="M3015 2599 c-4 -6 -5 -12 -2 -15 2 -3 7 2 10 11 7 17 1 20 -8 4z"/>
<path d="M3049 2593 c-13 -15 -12 -15 9 -4 23 12 28 21 13 21 -5 0 -15 -7 -22
-17z"/>
<path d="M3195 1881 c-48 -17 -50 -19 -47 -52 2 -19 9 -40 15 -47 14 -17 63
-11 59 7 -2 8 4 29 13 48 27 55 18 64 -40 44z"/>
<path d="M2941 1824 c-135 -44 -172 -60 -113 -48 22 5 32 3 32 -6 0 -7 14 -29
30 -50 19 -24 30 -50 30 -69 0 -30 7 -35 40 -32 12 2 12 0 2 -7 -11 -7 -8 -16
11 -45 14 -20 27 -34 30 -31 3 3 10 -4 17 -15 13 -26 24 -26 104 0 l65 21 -17
36 c-13 27 -14 36 -4 39 19 7 14 23 -8 23 -18 0 -40 26 -40 49 0 6 7 11 15 11
9 0 12 -6 9 -15 -4 -10 0 -15 15 -15 25 0 25 0 6 36 -10 20 -11 32 -4 41 15
18 0 36 -26 31 -18 -4 -22 0 -22 19 0 28 -21 55 -37 46 -6 -4 -5 1 3 10 18 22
18 22 -138 -29z m169 -148 c0 -2 -7 -7 -16 -10 -8 -3 -12 -2 -9 4 6 10 25 14
25 6z m10 -26 c0 -5 -8 -10 -17 -10 -15 0 -16 2 -3 10 19 12 20 12 20 0z
m-105 -20 c-3 -5 -12 -10 -18 -10 -7 0 -6 4 3 10 19 12 23 12 15 0z"/>
<path d="M2671 1763 c1 -23 2 -24 6 -6 2 12 12 24 21 26 12 3 10 5 -5 6 -19 1
-23 -4 -22 -26z"/>
<path d="M3205 1700 c3 -5 8 -10 11 -10 2 0 4 5 4 10 0 6 -5 10 -11 10 -5 0
-7 -4 -4 -10z"/>
<path d="M3160 1520 c-8 -5 -10 -10 -5 -10 6 0 -9 -9 -32 -20 -24 -10 -43 -23
-43 -27 0 -12 16 -35 24 -33 11 2 66 -24 66 -32 0 -4 -10 -8 -22 -10 -21 -3
-21 -5 9 -21 42 -22 44 -22 33 9 -15 39 -11 42 15 9 l25 -30 0 25 c0 32 -24
100 -37 109 -6 3 -12 14 -14 23 -3 13 -8 15 -19 8z"/>
<path d="M3200 1520 c0 -5 18 -10 41 -10 24 0 38 4 34 10 -3 6 -22 10 -41 10
-19 0 -34 -4 -34 -10z"/>
<path d="M2970 1466 c0 -3 18 -15 40 -26 38 -19 55 -15 27 8 -15 12 -67 27
-67 18z"/>
<path d="M2896 1432 c-4 -3 -6 -13 -6 -21 0 -13 11 -17 45 -19 25 -1 45 0 45
3 0 8 -79 43 -84 37z"/>
<path d="M2870 1360 c0 -5 12 -10 28 -9 24 0 25 1 7 9 -27 12 -35 12 -35 0z"/>
<path d="M3628 1233 c6 -2 18 -2 25 0 6 3 1 5 -13 5 -14 0 -19 -2 -12 -5z"/>
<path d="M2108 3053 c7 -3 16 -2 19 1 4 3 -2 6 -13 5 -11 0 -14 -3 -6 -6z"/>
<path d="M876 2733 c8 -35 18 -46 37 -41 12 2 9 10 -14 36 l-30 33 7 -28z"/>
<path d="M1580 2386 c0 -14 5 -26 10 -26 6 0 10 9 10 19 0 11 -4 23 -10 26 -6
4 -10 -5 -10 -19z"/>
<path d="M1253 973 c-4 -21 -8 -118 -8 -215 0 -165 1 -178 20 -192 11 -9 25
-14 30 -12 12 3 14 387 2 429 -11 39 -35 34 -44 -10z"/>
<path d="M1850 988 c0 -7 -2 -63 -5 -125 -2 -63 0 -115 5 -118 15 -9 48 31 60
74 10 40 5 111 -12 143 -12 24 -48 43 -48 26z"/>
<path d="M1851 429 l-1 -126 37 -6 c20 -4 38 -5 39 -4 1 1 -16 60 -37 132
l-38 130 0 -126z"/>
</g>
</svg>
